<svg width="80" height="34" viewBox="0 0 80 34" fill="none" xmlns="http://www.w3.org/2000/svg">
<rect width="80" height="34" rx="17" fill="#4285F4"/>
<path fill-rule="evenodd" clip-rule="evenodd" d="M41.7919 18.2638C40.36 19.6957 38.0384 19.6957 36.6065 18.2638C35.1746 16.8319 35.1746 14.5103 36.6065 13.0783C38.0384 11.6464 40.36 11.6464 41.7919 13.0783C43.2239 14.5103 43.2239 16.8319 41.7919 18.2638ZM42.2323 19.6468C40.2721 21.1462 37.4565 20.9994 35.6637 19.2066C33.7111 17.254 33.7111 14.0882 35.6637 12.1355C37.6163 10.1829 40.7821 10.1829 42.7348 12.1355C44.5275 13.9283 44.6743 16.7437 43.1751 18.7039L46.7418 22.2706L45.799 23.2134L42.2323 19.6468Z" fill="white"/>
</svg>
